# xmcd CD database file
#
# Track frame offsets:
#	150
#	14722
#	27423
#	40587
#	57141
#	72575
#	84819
#	99980
#	112816
#	132368
#	145140
#	166310
#	182370
#	192285
#	201024
#	211379
#	221433
#	236637
#
# Disc length: 4440 seconds
#
# Revision: 0
# Processed by: cddbd v1.5.1PL2 Copyright (c) Steve Scherf et al.
# Submitted via: CDex 1.51
#
DISCID=f4115612
DTITLE=VA - Highwaymen - The road  goes on forever (10th Anniversary Edition)
DYEAR=2005
DGENRE=Country
TTITLE0=The Devil's Right Hand
TTITLE1=Live Forever
TTITLE2=Everyone Gets Crazy
TTITLE3=It Is What It Is
TTITLE4=I Do Believe
TTITLE5=The End Of Unterstanding
TTITLE6=True Love Travels A Gravel Road
TTITLE7=Death And Hell
TTITLE8=Waiting For A Long Time
TTITLE9=Here Comes That Rainbow Again
TTITLE10=The Road Goes Forever
TTITLE11=If He Came Back Again (Acoustic demo - Bonus Track)
TTITLE12=Live Forever - Johnny Cash (Acoustic demo - Bonus Track)
TTITLE13=I Aint't Song - Waylon Jennings (Acoustic demo - Bonus Track)
TTITLE14=Pick Up The Tempo - Willie Nelson (Acoustic demo - Bonus Track)
TTITLE15=Closer To The Bone - Kris Kristofferson (Acoustic demo - Bonus Track)
TTITLE16=Back In The Saddle Again (Acoustic outtake- Bonus Track)
TTITLE17=Data
EXTD=YEAR: 2005
EXTT0=
EXTT1=
EXTT2=
EXTT3=
EXTT4=
EXTT5=
EXTT6=
EXTT7=
EXTT8=
EXTT9=
EXTT10=
EXTT11=
EXTT12=
EXTT13=
EXTT14=
EXTT15=
EXTT16=
EXTT17=
PLAYORDER=
